%TF.GenerationSoftware,KiCad,Pcbnew,7.0.8*%
%TF.CreationDate,2023-12-07T00:58:29-06:00*%
%TF.ProjectId,Capst_Power_Controller,43617073-745f-4506-9f77-65725f436f6e,rev?*%
%TF.SameCoordinates,Original*%
%TF.FileFunction,Paste,Top*%
%TF.FilePolarity,Positive*%
%FSLAX46Y46*%
G04 Gerber Fmt 4.6, Leading zero omitted, Abs format (unit mm)*
G04 Created by KiCad (PCBNEW 7.0.8) date 2023-12-07 00:58:29*
%MOMM*%
%LPD*%
G01*
G04 APERTURE LIST*
%ADD10R,1.350000X1.100000*%
%ADD11R,1.425000X0.450000*%
%ADD12R,1.680000X1.880000*%
%ADD13R,2.900000X1.000000*%
%ADD14R,1.820000X0.620000*%
%ADD15R,0.300000X0.250000*%
%ADD16R,0.250000X0.300000*%
%ADD17R,0.275000X0.300000*%
%ADD18R,2.050000X2.200000*%
G04 APERTURE END LIST*
D10*
%TO.C,C1*%
X116609400Y-71528400D03*
X116609400Y-74828400D03*
%TD*%
%TO.C,C11*%
X117066600Y-119356600D03*
X117066600Y-122656600D03*
%TD*%
D11*
%TO.C,IC3*%
X120394000Y-117055600D03*
X120394000Y-117705600D03*
X120394000Y-118355600D03*
X120394000Y-119005600D03*
X124818000Y-119005600D03*
X124818000Y-118355600D03*
X124818000Y-117705600D03*
X124818000Y-117055600D03*
D12*
X122606000Y-118030600D03*
%TD*%
D13*
%TO.C,L2*%
X119405400Y-88872600D03*
X119405400Y-86842600D03*
%TD*%
D14*
%TO.C,C12*%
X128014000Y-118365800D03*
X128014000Y-115165800D03*
%TD*%
D11*
%TO.C,IC2*%
X121005600Y-91821000D03*
X121005600Y-92471000D03*
X121005600Y-93121000D03*
X121005600Y-93771000D03*
X125429600Y-93771000D03*
X125429600Y-93121000D03*
X125429600Y-92471000D03*
X125429600Y-91821000D03*
D12*
X123217600Y-92796000D03*
%TD*%
D10*
%TO.C,C2*%
X131798600Y-68607400D03*
X131798600Y-71907400D03*
%TD*%
D15*
%TO.C,R3*%
X125806200Y-87706200D03*
X125806200Y-88306200D03*
%TD*%
D16*
%TO.C,R4*%
X125958600Y-96723200D03*
X125358600Y-96723200D03*
%TD*%
D17*
%TO.C,R6*%
X125474000Y-121845800D03*
X126100000Y-121845800D03*
%TD*%
D15*
%TO.C,R1*%
X127328200Y-64476800D03*
X127328200Y-65076800D03*
%TD*%
D10*
%TO.C,C5*%
X137795000Y-93877400D03*
X137795000Y-97177400D03*
%TD*%
D11*
%TO.C,IC1*%
X119807600Y-69226800D03*
X119807600Y-69876800D03*
X119807600Y-70526800D03*
X119807600Y-71176800D03*
X124231600Y-71176800D03*
X124231600Y-70526800D03*
X124231600Y-69876800D03*
X124231600Y-69226800D03*
D12*
X122019600Y-70201800D03*
%TD*%
D13*
%TO.C,L1*%
X120292400Y-64999600D03*
X120292400Y-62969600D03*
%TD*%
D10*
%TO.C,C10*%
X133094000Y-117299200D03*
X133094000Y-120599200D03*
%TD*%
D15*
%TO.C,R5*%
X129106200Y-110365000D03*
X129106200Y-110965000D03*
%TD*%
D10*
%TO.C,C7*%
X116560600Y-94109000D03*
X116560600Y-97409000D03*
%TD*%
%TO.C,C6*%
X133273800Y-93776800D03*
X133273800Y-97076800D03*
%TD*%
D14*
%TO.C,C4*%
X127480600Y-70817000D03*
X127480600Y-67617000D03*
%TD*%
D10*
%TO.C,C9*%
X138047000Y-117299200D03*
X138047000Y-120599200D03*
%TD*%
D14*
%TO.C,C8*%
X128574800Y-94309800D03*
X128574800Y-91109800D03*
%TD*%
D10*
%TO.C,C3*%
X137589800Y-68632800D03*
X137589800Y-71932800D03*
%TD*%
D16*
%TO.C,R2*%
X124915200Y-73966800D03*
X124315200Y-73966800D03*
%TD*%
D18*
%TO.C,L3*%
X118514400Y-113620200D03*
X118514400Y-107520200D03*
%TD*%
M02*
