%TF.GenerationSoftware,KiCad,Pcbnew,7.0.8*%
%TF.CreationDate,2023-12-07T00:58:29-06:00*%
%TF.ProjectId,Capst_Power_Controller,43617073-745f-4506-9f77-65725f436f6e,rev?*%
%TF.SameCoordinates,Original*%
%TF.FileFunction,Copper,L1,Top*%
%TF.FilePolarity,Positive*%
%FSLAX46Y46*%
G04 Gerber Fmt 4.6, Leading zero omitted, Abs format (unit mm)*
G04 Created by KiCad (PCBNEW 7.0.8) date 2023-12-07 00:58:29*
%MOMM*%
%LPD*%
G01*
G04 APERTURE LIST*
%TA.AperFunction,SMDPad,CuDef*%
%ADD10R,1.350000X1.100000*%
%TD*%
%TA.AperFunction,SMDPad,CuDef*%
%ADD11R,1.425000X0.450000*%
%TD*%
%TA.AperFunction,SMDPad,CuDef*%
%ADD12R,1.680000X1.880000*%
%TD*%
%TA.AperFunction,SMDPad,CuDef*%
%ADD13R,2.900000X1.000000*%
%TD*%
%TA.AperFunction,SMDPad,CuDef*%
%ADD14R,1.820000X0.620000*%
%TD*%
%TA.AperFunction,ComponentPad*%
%ADD15R,1.800000X1.800000*%
%TD*%
%TA.AperFunction,ComponentPad*%
%ADD16C,1.800000*%
%TD*%
%TA.AperFunction,SMDPad,CuDef*%
%ADD17R,0.300000X0.250000*%
%TD*%
%TA.AperFunction,SMDPad,CuDef*%
%ADD18R,0.250000X0.300000*%
%TD*%
%TA.AperFunction,SMDPad,CuDef*%
%ADD19R,0.275000X0.300000*%
%TD*%
%TA.AperFunction,SMDPad,CuDef*%
%ADD20R,2.050000X2.200000*%
%TD*%
%TA.AperFunction,ViaPad*%
%ADD21C,0.800000*%
%TD*%
%TA.AperFunction,Conductor*%
%ADD22C,0.500000*%
%TD*%
%TA.AperFunction,Conductor*%
%ADD23C,0.300000*%
%TD*%
%TA.AperFunction,Conductor*%
%ADD24C,0.200000*%
%TD*%
G04 APERTURE END LIST*
D10*
%TO.P,C1,1,1*%
%TO.N,Vin*%
X116609400Y-71528400D03*
%TO.P,C1,2,2*%
%TO.N,GND*%
X116609400Y-74828400D03*
%TD*%
%TO.P,C11,1,1*%
%TO.N,Vin*%
X117066600Y-119356600D03*
%TO.P,C11,2,2*%
%TO.N,GND*%
X117066600Y-122656600D03*
%TD*%
D11*
%TO.P,IC3,1,SW*%
%TO.N,/SW3*%
X120394000Y-117055600D03*
%TO.P,IC3,2,VIN*%
%TO.N,Vin*%
X120394000Y-117705600D03*
%TO.P,IC3,3,RUN*%
X120394000Y-118355600D03*
%TO.P,IC3,4,PGOOD*%
%TO.N,/PGGOOD3*%
X120394000Y-119005600D03*
%TO.P,IC3,5,FB*%
%TO.N,FB3*%
X124818000Y-119005600D03*
%TO.P,IC3,6,INTVCC*%
%TO.N,/MODE{slash}SYNC3*%
X124818000Y-118355600D03*
%TO.P,IC3,7,MODE/SYNC*%
X124818000Y-117705600D03*
%TO.P,IC3,8,SGND*%
%TO.N,GND*%
X124818000Y-117055600D03*
D12*
%TO.P,IC3,9,GND*%
X122606000Y-118030600D03*
%TD*%
D13*
%TO.P,L2,1,1*%
%TO.N,/SW2*%
X119405400Y-88872600D03*
%TO.P,L2,2,2*%
%TO.N,/Output2*%
X119405400Y-86842600D03*
%TD*%
D14*
%TO.P,C12,1,1*%
%TO.N,/MODE{slash}SYNC3*%
X128014000Y-118365800D03*
%TO.P,C12,2,2*%
%TO.N,GND*%
X128014000Y-115165800D03*
%TD*%
D11*
%TO.P,IC2,1,SW*%
%TO.N,/SW2*%
X121005600Y-91821000D03*
%TO.P,IC2,2,VIN*%
%TO.N,Vin*%
X121005600Y-92471000D03*
%TO.P,IC2,3,RUN*%
X121005600Y-93121000D03*
%TO.P,IC2,4,PGOOD*%
%TO.N,/PGGOOD2*%
X121005600Y-93771000D03*
%TO.P,IC2,5,FB*%
%TO.N,FB2*%
X125429600Y-93771000D03*
%TO.P,IC2,6,INTVCC*%
%TO.N,/MODE{slash}SYNC2*%
X125429600Y-93121000D03*
%TO.P,IC2,7,MODE/SYNC*%
X125429600Y-92471000D03*
%TO.P,IC2,8,SGND*%
%TO.N,GND*%
X125429600Y-91821000D03*
D12*
%TO.P,IC2,9,GND*%
X123217600Y-92796000D03*
%TD*%
D15*
%TO.P,J2,1,1*%
%TO.N,/Output1*%
X152273000Y-68988400D03*
D16*
%TO.P,J2,2,2*%
%TO.N,GND*%
X152273000Y-71528400D03*
%TD*%
D15*
%TO.P,J4,1,1*%
%TO.N,/Output3*%
X152400000Y-116840000D03*
D16*
%TO.P,J4,2,2*%
%TO.N,GND*%
X152400000Y-119380000D03*
%TD*%
D10*
%TO.P,C2,1,1*%
%TO.N,/Output1*%
X131798600Y-68607400D03*
%TO.P,C2,2,2*%
%TO.N,FB1*%
X131798600Y-71907400D03*
%TD*%
D17*
%TO.P,R3,1,1*%
%TO.N,/Output2*%
X125806200Y-87706200D03*
%TO.P,R3,2,2*%
%TO.N,FB2*%
X125806200Y-88306200D03*
%TD*%
D15*
%TO.P,J1,1,1*%
%TO.N,Vin*%
X104749600Y-94208600D03*
D16*
%TO.P,J1,2,2*%
%TO.N,GND*%
X104749600Y-96748600D03*
%TD*%
D18*
%TO.P,R4,1,1*%
%TO.N,FB2*%
X125958600Y-96723200D03*
%TO.P,R4,2,2*%
%TO.N,GND*%
X125358600Y-96723200D03*
%TD*%
D15*
%TO.P,J3,1,1*%
%TO.N,/Output2*%
X152374600Y-95072200D03*
D16*
%TO.P,J3,2,2*%
%TO.N,GND*%
X152374600Y-97612200D03*
%TD*%
D19*
%TO.P,R6,1,1*%
%TO.N,FB3*%
X125474000Y-121845800D03*
%TO.P,R6,2,2*%
%TO.N,GND*%
X126100000Y-121845800D03*
%TD*%
D17*
%TO.P,R1,1,1*%
%TO.N,/Output1*%
X127328200Y-64476800D03*
%TO.P,R1,2,2*%
%TO.N,FB1*%
X127328200Y-65076800D03*
%TD*%
D10*
%TO.P,C5,1,1*%
%TO.N,/Output2*%
X137795000Y-93877400D03*
%TO.P,C5,2,2*%
%TO.N,GND*%
X137795000Y-97177400D03*
%TD*%
D11*
%TO.P,IC1,1,SW*%
%TO.N,/SW1*%
X119807600Y-69226800D03*
%TO.P,IC1,2,VIN*%
%TO.N,Vin*%
X119807600Y-69876800D03*
%TO.P,IC1,3,RUN*%
X119807600Y-70526800D03*
%TO.P,IC1,4,PGOOD*%
%TO.N,/PGGOOD1*%
X119807600Y-71176800D03*
%TO.P,IC1,5,FB*%
%TO.N,FB1*%
X124231600Y-71176800D03*
%TO.P,IC1,6,INTVCC*%
%TO.N,/MODE{slash}SYNC1*%
X124231600Y-70526800D03*
%TO.P,IC1,7,MODE/SYNC*%
X124231600Y-69876800D03*
%TO.P,IC1,8,SGND*%
%TO.N,GND*%
X124231600Y-69226800D03*
D12*
%TO.P,IC1,9,GND*%
X122019600Y-70201800D03*
%TD*%
D13*
%TO.P,L1,1,1*%
%TO.N,/SW1*%
X120292400Y-64999600D03*
%TO.P,L1,2,2*%
%TO.N,/Output1*%
X120292400Y-62969600D03*
%TD*%
D10*
%TO.P,C10,1,1*%
%TO.N,/Output3*%
X133094000Y-117299200D03*
%TO.P,C10,2,2*%
%TO.N,FB3*%
X133094000Y-120599200D03*
%TD*%
D17*
%TO.P,R5,1,1*%
%TO.N,/Output3*%
X129106200Y-110365000D03*
%TO.P,R5,2,2*%
%TO.N,FB3*%
X129106200Y-110965000D03*
%TD*%
D10*
%TO.P,C7,1,1*%
%TO.N,Vin*%
X116560600Y-94109000D03*
%TO.P,C7,2,2*%
%TO.N,GND*%
X116560600Y-97409000D03*
%TD*%
%TO.P,C6,1,1*%
%TO.N,/Output2*%
X133273800Y-93776800D03*
%TO.P,C6,2,2*%
%TO.N,FB2*%
X133273800Y-97076800D03*
%TD*%
D14*
%TO.P,C4,1,1*%
%TO.N,/MODE{slash}SYNC1*%
X127480600Y-70817000D03*
%TO.P,C4,2,2*%
%TO.N,GND*%
X127480600Y-67617000D03*
%TD*%
D10*
%TO.P,C9,1,1*%
%TO.N,/Output3*%
X138047000Y-117299200D03*
%TO.P,C9,2,2*%
%TO.N,GND*%
X138047000Y-120599200D03*
%TD*%
D14*
%TO.P,C8,1,1*%
%TO.N,/MODE{slash}SYNC2*%
X128574800Y-94309800D03*
%TO.P,C8,2,2*%
%TO.N,GND*%
X128574800Y-91109800D03*
%TD*%
D10*
%TO.P,C3,1,1*%
%TO.N,/Output1*%
X137589800Y-68632800D03*
%TO.P,C3,2,2*%
%TO.N,GND*%
X137589800Y-71932800D03*
%TD*%
D18*
%TO.P,R2,1,1*%
%TO.N,FB1*%
X124915200Y-73966800D03*
%TO.P,R2,2,2*%
%TO.N,GND*%
X124315200Y-73966800D03*
%TD*%
D20*
%TO.P,L3,1,1*%
%TO.N,/SW3*%
X118514400Y-113620200D03*
%TO.P,L3,2,2*%
%TO.N,/Output3*%
X118514400Y-107520200D03*
%TD*%
D21*
%TO.N,GND*%
X128445800Y-72900000D03*
X129921000Y-95873700D03*
X111480600Y-92964000D03*
X129588800Y-75414600D03*
X129487200Y-119849700D03*
X129512600Y-121642600D03*
X129514600Y-97967800D03*
X110058200Y-101498400D03*
X111455200Y-95224600D03*
X107594400Y-101600000D03*
%TD*%
D22*
%TO.N,Vin*%
X104749600Y-94208600D02*
X104749600Y-78511400D01*
D23*
X118261000Y-69876800D02*
X116609400Y-71528400D01*
X117371400Y-118340600D02*
X117386400Y-118355600D01*
X117386400Y-118355600D02*
X118036400Y-117705600D01*
X117801600Y-71528400D02*
X116609400Y-71528400D01*
D22*
X111732600Y-71528400D02*
X116609400Y-71528400D01*
X108991400Y-94208600D02*
X108991400Y-113944400D01*
D23*
X117386400Y-118355600D02*
X120394000Y-118355600D01*
D22*
X108991400Y-94208600D02*
X109091000Y-94109000D01*
D23*
X116560600Y-94109000D02*
X118108000Y-94109000D01*
X118933200Y-92471000D02*
X121005600Y-92471000D01*
D22*
X114403600Y-119356600D02*
X117066600Y-119356600D01*
D23*
X118036400Y-117705600D02*
X120394000Y-117705600D01*
X119807600Y-70526800D02*
X118803200Y-70526800D01*
D22*
X104749600Y-78511400D02*
X111732600Y-71528400D01*
D23*
X117295200Y-94109000D02*
X118933200Y-92471000D01*
X119807600Y-69876800D02*
X118261000Y-69876800D01*
D22*
X108991400Y-113944400D02*
X114403600Y-119356600D01*
X109091000Y-94109000D02*
X116560600Y-94109000D01*
D23*
X118803200Y-70526800D02*
X117801600Y-71528400D01*
D22*
X104749600Y-94208600D02*
X108991400Y-94208600D01*
D23*
X119096000Y-93121000D02*
X121005600Y-93121000D01*
X118108000Y-94109000D02*
X119096000Y-93121000D01*
X117066600Y-118645400D02*
X117371400Y-118340600D01*
X117066600Y-119356600D02*
X117066600Y-118645400D01*
D22*
%TO.N,GND*%
X138047000Y-121642600D02*
X134668800Y-125020800D01*
X125780800Y-99999800D02*
X125258600Y-99477600D01*
X122606000Y-121005600D02*
X122606000Y-118030600D01*
X130073400Y-99999800D02*
X125780800Y-99999800D01*
X137589800Y-73230200D02*
X135255000Y-75565000D01*
D23*
X124460000Y-67945000D02*
X124788000Y-67617000D01*
D22*
X125258600Y-99477600D02*
X125258600Y-96723200D01*
D23*
X124788000Y-67617000D02*
X127480600Y-67617000D01*
X125095000Y-115570000D02*
X125499200Y-115165800D01*
D22*
X111480600Y-76733400D02*
X113385600Y-74828400D01*
X111480600Y-92964000D02*
X111480600Y-76733400D01*
X104749600Y-102133400D02*
X104749600Y-114579400D01*
X104749600Y-102133400D02*
X107061000Y-102133400D01*
D23*
X128740600Y-68877000D02*
X127480600Y-67617000D01*
X123581000Y-117055600D02*
X122606000Y-118030600D01*
D22*
X129739200Y-75565000D02*
X129588800Y-75414600D01*
D23*
X127965200Y-90500200D02*
X126750400Y-90500200D01*
X126100000Y-122235800D02*
X126100000Y-121845800D01*
D22*
X114147600Y-97409000D02*
X116560600Y-97409000D01*
D23*
X124818000Y-117055600D02*
X125095000Y-116778600D01*
D22*
X118333000Y-74828400D02*
X122019600Y-71141800D01*
D23*
X124315200Y-73966800D02*
X122019600Y-71671200D01*
D22*
X113385600Y-74828400D02*
X116609400Y-74828400D01*
X130186300Y-95873700D02*
X130708400Y-95351600D01*
X130708400Y-95351600D02*
X130708400Y-93243400D01*
X131087400Y-125020800D02*
X128885000Y-125020800D01*
X134721600Y-99949000D02*
X130124200Y-99949000D01*
X112826800Y-122656600D02*
X117066600Y-122656600D01*
X104749600Y-114579400D02*
X112826800Y-122656600D01*
X152273000Y-71528400D02*
X137994200Y-71528400D01*
X130708400Y-93243400D02*
X128574800Y-91109800D01*
X129540000Y-98044000D02*
X129540000Y-97993200D01*
D23*
X122606000Y-121289200D02*
X124381800Y-123065000D01*
D22*
X137589800Y-71932800D02*
X137589800Y-73230200D01*
X129921000Y-95873700D02*
X130186300Y-95873700D01*
D23*
X122019600Y-71671200D02*
X122019600Y-70201800D01*
D22*
X137795000Y-97177400D02*
X151939800Y-97177400D01*
X151939800Y-97177400D02*
X152374600Y-97612200D01*
D23*
X122606000Y-121005600D02*
X122606000Y-121289200D01*
D22*
X122019600Y-71141800D02*
X122019600Y-70201800D01*
D23*
X129614200Y-75440000D02*
X129588800Y-75414600D01*
X124381800Y-123065000D02*
X125270800Y-123065000D01*
X125499200Y-115165800D02*
X128014000Y-115165800D01*
X124818000Y-117055600D02*
X123581000Y-117055600D01*
D22*
X120955000Y-122656600D02*
X122606000Y-121005600D01*
D23*
X125270800Y-123065000D02*
X126100000Y-122235800D01*
X123217600Y-95811000D02*
X123217600Y-92796000D01*
D22*
X107061000Y-102133400D02*
X107594400Y-101600000D01*
D23*
X125358600Y-96723200D02*
X124129800Y-96723200D01*
D22*
X117066600Y-122656600D02*
X120955000Y-122656600D01*
X135255000Y-75565000D02*
X129739200Y-75565000D01*
D23*
X124192600Y-91821000D02*
X125429600Y-91821000D01*
X125095000Y-116778600D02*
X125095000Y-115570000D01*
X128445800Y-72900000D02*
X128740600Y-72605200D01*
X124231600Y-69226800D02*
X122994600Y-69226800D01*
X122994600Y-69226800D02*
X122019600Y-70201800D01*
X126750400Y-90500200D02*
X125429600Y-91821000D01*
X124460000Y-68998400D02*
X124460000Y-67945000D01*
D22*
X137795000Y-97177400D02*
X135023400Y-99949000D01*
X130124200Y-99949000D02*
X129540000Y-99364800D01*
D23*
X128740600Y-72605200D02*
X128740600Y-68877000D01*
D22*
X138047000Y-120599200D02*
X151180800Y-120599200D01*
X111455200Y-96494600D02*
X111455200Y-95224600D01*
X137874200Y-97256600D02*
X137795000Y-97177400D01*
X137994200Y-71528400D02*
X137589800Y-71932800D01*
X135023400Y-99949000D02*
X134721600Y-99949000D01*
X113258600Y-98298000D02*
X111455200Y-96494600D01*
D23*
X128574800Y-91109800D02*
X127965200Y-90500200D01*
D22*
X129540000Y-99364800D02*
X129540000Y-98044000D01*
X138047000Y-120599200D02*
X138047000Y-121642600D01*
X121619600Y-97409000D02*
X123217600Y-95811000D01*
X130124200Y-99949000D02*
X130073400Y-99999800D01*
X116609400Y-74828400D02*
X118333000Y-74828400D01*
X129512600Y-123446000D02*
X129512600Y-121642600D01*
X128885000Y-125020800D02*
X126100000Y-122235800D01*
D23*
X123217600Y-92796000D02*
X124192600Y-91821000D01*
D22*
X129487200Y-116639000D02*
X128014000Y-115165800D01*
X129487200Y-119849700D02*
X129487200Y-116639000D01*
X104749600Y-96748600D02*
X104749600Y-102133400D01*
X134668800Y-125020800D02*
X131087400Y-125020800D01*
X113258600Y-98298000D02*
X114147600Y-97409000D01*
X151180800Y-120599200D02*
X152400000Y-119380000D01*
D23*
X124231600Y-69226800D02*
X124460000Y-68998400D01*
D22*
X131087400Y-125020800D02*
X129512600Y-123446000D01*
X116560600Y-97409000D02*
X121619600Y-97409000D01*
D23*
X124129800Y-96723200D02*
X123217600Y-95811000D01*
D22*
X129540000Y-97993200D02*
X129514600Y-97967800D01*
X110058200Y-101498400D02*
X113258600Y-98298000D01*
%TO.N,/Output1*%
X151917400Y-68632800D02*
X152273000Y-68988400D01*
X131798600Y-67028600D02*
X131798600Y-68607400D01*
X137589800Y-68632800D02*
X151917400Y-68632800D01*
X131798600Y-68607400D02*
X137564400Y-68607400D01*
D23*
X127328200Y-64463200D02*
X125834600Y-62969600D01*
D22*
X120292400Y-62969600D02*
X125834600Y-62969600D01*
X129246800Y-64476800D02*
X131798600Y-67028600D01*
X137564400Y-68607400D02*
X137589800Y-68632800D01*
D23*
X127328200Y-64476800D02*
X127328200Y-64463200D01*
X127328200Y-64476800D02*
X129246800Y-64476800D01*
%TO.N,/MODE{slash}SYNC1*%
X126540400Y-69876800D02*
X124231600Y-69876800D01*
X127480600Y-70817000D02*
X126540400Y-69876800D01*
X124231600Y-70526800D02*
X127190400Y-70526800D01*
X127190400Y-70526800D02*
X127480600Y-70817000D01*
D22*
%TO.N,/Output2*%
X137795000Y-93877400D02*
X151179800Y-93877400D01*
X131114800Y-87147400D02*
X133273800Y-89306400D01*
X151179800Y-93877400D02*
X152374600Y-95072200D01*
X133273800Y-89306400D02*
X133273800Y-93776800D01*
X136525000Y-92760800D02*
X137641600Y-93877400D01*
X135102600Y-92760800D02*
X136525000Y-92760800D01*
X137641600Y-93877400D02*
X137795000Y-93877400D01*
X119405400Y-86842600D02*
X124942600Y-86842600D01*
X133273800Y-93776800D02*
X134086600Y-93776800D01*
X125806200Y-87706200D02*
X126365000Y-87147400D01*
X124942600Y-86842600D02*
X125806200Y-87706200D01*
X126365000Y-87147400D02*
X131114800Y-87147400D01*
X134086600Y-93776800D02*
X135102600Y-92760800D01*
D24*
%TO.N,/MODE{slash}SYNC2*%
X126987500Y-92722500D02*
X126736000Y-92471000D01*
X126987500Y-92722500D02*
X126589000Y-93121000D01*
X126589000Y-93121000D02*
X125429600Y-93121000D01*
X126736000Y-92471000D02*
X125429600Y-92471000D01*
X128574800Y-94309800D02*
X126987500Y-92722500D01*
D22*
%TO.N,/Output3*%
X138047000Y-117299200D02*
X151940800Y-117299200D01*
X129419596Y-110363000D02*
X132461000Y-110363000D01*
X133094000Y-110996000D02*
X133094000Y-117299200D01*
X129106200Y-110365000D02*
X129417596Y-110365000D01*
X129417596Y-110365000D02*
X129419596Y-110363000D01*
X151940800Y-117299200D02*
X152400000Y-116840000D01*
X118514400Y-107520200D02*
X122197400Y-107520200D01*
X125042200Y-110365000D02*
X129106200Y-110365000D01*
X133094000Y-117299200D02*
X138047000Y-117299200D01*
X122197400Y-107520200D02*
X125042200Y-110365000D01*
X132461000Y-110363000D02*
X133094000Y-110996000D01*
D23*
%TO.N,/MODE{slash}SYNC3*%
X126315600Y-117705600D02*
X124818000Y-117705600D01*
X126870000Y-118260000D02*
X126315600Y-117705600D01*
X126870000Y-118365800D02*
X126870000Y-118260000D01*
X128014000Y-118365800D02*
X126870000Y-118365800D01*
X126870000Y-118365800D02*
X124828200Y-118365800D01*
X124828200Y-118365800D02*
X124818000Y-118355600D01*
D22*
%TO.N,/SW1*%
X120292400Y-64999600D02*
X119380000Y-65912000D01*
X119380000Y-68799200D02*
X119782600Y-69201800D01*
X119380000Y-65912000D02*
X119380000Y-68799200D01*
X119782600Y-69201800D02*
X119807600Y-69201800D01*
D23*
%TO.N,/SW2*%
X121005600Y-90472800D02*
X121005600Y-91821000D01*
X119405400Y-88872600D02*
X121005600Y-90472800D01*
%TO.N,/SW3*%
X120394000Y-115673600D02*
X120394000Y-117055600D01*
X119276400Y-115673600D02*
X120394000Y-115673600D01*
X118514400Y-114911600D02*
X119276400Y-115673600D01*
X118514400Y-113620200D02*
X118514400Y-114911600D01*
%TO.N,FB1*%
X131798600Y-71907400D02*
X131798600Y-72671400D01*
X124915200Y-71860400D02*
X124915200Y-73966800D01*
X129540000Y-67288600D02*
X129540000Y-69648800D01*
X131798600Y-72671400D02*
X130503200Y-73966800D01*
X130503200Y-73966800D02*
X124915200Y-73966800D01*
X129540000Y-69648800D02*
X131798600Y-71907400D01*
X124231600Y-71176800D02*
X124915200Y-71860400D01*
X127328200Y-65076800D02*
X129540000Y-67288600D01*
%TO.N,FB2*%
X131572000Y-95910400D02*
X132107400Y-95910400D01*
X131112800Y-97076800D02*
X130759200Y-96723200D01*
X125958600Y-96723200D02*
X125958600Y-94300000D01*
X125806200Y-88306200D02*
X130165400Y-88306200D01*
X130165400Y-88306200D02*
X131572000Y-89712800D01*
X133273800Y-97076800D02*
X131112800Y-97076800D01*
X130759200Y-96723200D02*
X125958600Y-96723200D01*
X125958600Y-94300000D02*
X125429600Y-93771000D01*
X131572000Y-89712800D02*
X131572000Y-95910400D01*
X132107400Y-95910400D02*
X133273800Y-97076800D01*
%TO.N,FB3*%
X124940600Y-121845800D02*
X124813600Y-121718800D01*
X133094000Y-120599200D02*
X125907800Y-120599200D01*
X129106200Y-110965000D02*
X129106200Y-111711200D01*
X125474000Y-121845800D02*
X124940600Y-121845800D01*
X124813600Y-121718800D02*
X124818000Y-121714400D01*
X129108200Y-111713200D02*
X131036600Y-113641600D01*
X129106200Y-111711200D02*
X129108200Y-111713200D01*
X125907800Y-120599200D02*
X125474000Y-121033000D01*
X125474000Y-121033000D02*
X125474000Y-121845800D01*
X124818000Y-121714400D02*
X124818000Y-119005600D01*
X131036600Y-118541800D02*
X133094000Y-120599200D01*
X131036600Y-113641600D02*
X131036600Y-118541800D01*
%TD*%
M02*
