%TF.GenerationSoftware,KiCad,Pcbnew,7.0.8*%
%TF.CreationDate,2023-12-07T00:58:29-06:00*%
%TF.ProjectId,Capst_Power_Controller,43617073-745f-4506-9f77-65725f436f6e,rev?*%
%TF.SameCoordinates,Original*%
%TF.FileFunction,Copper,L2,Bot*%
%TF.FilePolarity,Positive*%
%FSLAX46Y46*%
G04 Gerber Fmt 4.6, Leading zero omitted, Abs format (unit mm)*
G04 Created by KiCad (PCBNEW 7.0.8) date 2023-12-07 00:58:29*
%MOMM*%
%LPD*%
G01*
G04 APERTURE LIST*
%TA.AperFunction,ComponentPad*%
%ADD10R,1.800000X1.800000*%
%TD*%
%TA.AperFunction,ComponentPad*%
%ADD11C,1.800000*%
%TD*%
%TA.AperFunction,ViaPad*%
%ADD12C,0.800000*%
%TD*%
%TA.AperFunction,Conductor*%
%ADD13C,0.500000*%
%TD*%
%TA.AperFunction,Conductor*%
%ADD14C,0.300000*%
%TD*%
G04 APERTURE END LIST*
D10*
%TO.P,J2,1,1*%
%TO.N,/Output1*%
X152273000Y-68988400D03*
D11*
%TO.P,J2,2,2*%
%TO.N,GND*%
X152273000Y-71528400D03*
%TD*%
D10*
%TO.P,J4,1,1*%
%TO.N,/Output3*%
X152400000Y-116840000D03*
D11*
%TO.P,J4,2,2*%
%TO.N,GND*%
X152400000Y-119380000D03*
%TD*%
D10*
%TO.P,J1,1,1*%
%TO.N,Vin*%
X104749600Y-94208600D03*
D11*
%TO.P,J1,2,2*%
%TO.N,GND*%
X104749600Y-96748600D03*
%TD*%
D10*
%TO.P,J3,1,1*%
%TO.N,/Output2*%
X152374600Y-95072200D03*
D11*
%TO.P,J3,2,2*%
%TO.N,GND*%
X152374600Y-97612200D03*
%TD*%
D12*
%TO.N,GND*%
X128445800Y-72900000D03*
X129921000Y-95873700D03*
X111480600Y-92964000D03*
X129588800Y-75414600D03*
X129487200Y-119849700D03*
X129512600Y-121642600D03*
X129514600Y-97967800D03*
X110058200Y-101498400D03*
X111455200Y-95224600D03*
X107594400Y-101600000D03*
%TD*%
D13*
%TO.N,GND*%
X109956600Y-101600000D02*
X110058200Y-101498400D01*
D14*
X129588800Y-74017600D02*
X128458500Y-72887300D01*
D13*
X129512600Y-121642600D02*
X129487200Y-121617200D01*
X111455200Y-92989400D02*
X111480600Y-92964000D01*
D14*
X128458500Y-72887300D02*
X128445800Y-72900000D01*
D13*
X111455200Y-95224600D02*
X111455200Y-92989400D01*
D14*
X129588800Y-75414600D02*
X129588800Y-74017600D01*
D13*
X129514600Y-97967800D02*
X129514600Y-96494600D01*
X107594400Y-101600000D02*
X109956600Y-101600000D01*
X129514600Y-96494600D02*
X129921000Y-96088200D01*
X129487200Y-121617200D02*
X129487200Y-119849700D01*
%TD*%
M02*
