%TF.GenerationSoftware,KiCad,Pcbnew,7.0.8*%
%TF.CreationDate,2023-12-07T00:58:29-06:00*%
%TF.ProjectId,Capst_Power_Controller,43617073-745f-4506-9f77-65725f436f6e,rev?*%
%TF.SameCoordinates,Original*%
%TF.FileFunction,Legend,Bot*%
%TF.FilePolarity,Positive*%
%FSLAX46Y46*%
G04 Gerber Fmt 4.6, Leading zero omitted, Abs format (unit mm)*
G04 Created by KiCad (PCBNEW 7.0.8) date 2023-12-07 00:58:29*
%MOMM*%
%LPD*%
G01*
G04 APERTURE LIST*
%ADD10C,0.150000*%
G04 APERTURE END LIST*
D10*
X147094411Y-64934819D02*
X147665839Y-64934819D01*
X147380125Y-64934819D02*
X147380125Y-63934819D01*
X147380125Y-63934819D02*
X147475363Y-64077676D01*
X147475363Y-64077676D02*
X147570601Y-64172914D01*
X147570601Y-64172914D02*
X147665839Y-64220533D01*
X146713458Y-64030057D02*
X146665839Y-63982438D01*
X146665839Y-63982438D02*
X146570601Y-63934819D01*
X146570601Y-63934819D02*
X146332506Y-63934819D01*
X146332506Y-63934819D02*
X146237268Y-63982438D01*
X146237268Y-63982438D02*
X146189649Y-64030057D01*
X146189649Y-64030057D02*
X146142030Y-64125295D01*
X146142030Y-64125295D02*
X146142030Y-64220533D01*
X146142030Y-64220533D02*
X146189649Y-64363390D01*
X146189649Y-64363390D02*
X146761077Y-64934819D01*
X146761077Y-64934819D02*
X146142030Y-64934819D01*
X144999173Y-63887200D02*
X145856315Y-65172914D01*
X144713458Y-64030057D02*
X144665839Y-63982438D01*
X144665839Y-63982438D02*
X144570601Y-63934819D01*
X144570601Y-63934819D02*
X144332506Y-63934819D01*
X144332506Y-63934819D02*
X144237268Y-63982438D01*
X144237268Y-63982438D02*
X144189649Y-64030057D01*
X144189649Y-64030057D02*
X144142030Y-64125295D01*
X144142030Y-64125295D02*
X144142030Y-64220533D01*
X144142030Y-64220533D02*
X144189649Y-64363390D01*
X144189649Y-64363390D02*
X144761077Y-64934819D01*
X144761077Y-64934819D02*
X144142030Y-64934819D01*
X143808696Y-63934819D02*
X143189649Y-63934819D01*
X143189649Y-63934819D02*
X143522982Y-64315771D01*
X143522982Y-64315771D02*
X143380125Y-64315771D01*
X143380125Y-64315771D02*
X143284887Y-64363390D01*
X143284887Y-64363390D02*
X143237268Y-64411009D01*
X143237268Y-64411009D02*
X143189649Y-64506247D01*
X143189649Y-64506247D02*
X143189649Y-64744342D01*
X143189649Y-64744342D02*
X143237268Y-64839580D01*
X143237268Y-64839580D02*
X143284887Y-64887200D01*
X143284887Y-64887200D02*
X143380125Y-64934819D01*
X143380125Y-64934819D02*
X143665839Y-64934819D01*
X143665839Y-64934819D02*
X143761077Y-64887200D01*
X143761077Y-64887200D02*
X143808696Y-64839580D01*
X147761077Y-65544819D02*
X147427744Y-66544819D01*
X147427744Y-66544819D02*
X147094411Y-65544819D01*
X146570601Y-65544819D02*
X146475363Y-65544819D01*
X146475363Y-65544819D02*
X146380125Y-65592438D01*
X146380125Y-65592438D02*
X146332506Y-65640057D01*
X146332506Y-65640057D02*
X146284887Y-65735295D01*
X146284887Y-65735295D02*
X146237268Y-65925771D01*
X146237268Y-65925771D02*
X146237268Y-66163866D01*
X146237268Y-66163866D02*
X146284887Y-66354342D01*
X146284887Y-66354342D02*
X146332506Y-66449580D01*
X146332506Y-66449580D02*
X146380125Y-66497200D01*
X146380125Y-66497200D02*
X146475363Y-66544819D01*
X146475363Y-66544819D02*
X146570601Y-66544819D01*
X146570601Y-66544819D02*
X146665839Y-66497200D01*
X146665839Y-66497200D02*
X146713458Y-66449580D01*
X146713458Y-66449580D02*
X146761077Y-66354342D01*
X146761077Y-66354342D02*
X146808696Y-66163866D01*
X146808696Y-66163866D02*
X146808696Y-65925771D01*
X146808696Y-65925771D02*
X146761077Y-65735295D01*
X146761077Y-65735295D02*
X146713458Y-65640057D01*
X146713458Y-65640057D02*
X146665839Y-65592438D01*
X146665839Y-65592438D02*
X146570601Y-65544819D01*
X145808696Y-66449580D02*
X145761077Y-66497200D01*
X145761077Y-66497200D02*
X145808696Y-66544819D01*
X145808696Y-66544819D02*
X145856315Y-66497200D01*
X145856315Y-66497200D02*
X145808696Y-66449580D01*
X145808696Y-66449580D02*
X145808696Y-66544819D01*
X145380125Y-65640057D02*
X145332506Y-65592438D01*
X145332506Y-65592438D02*
X145237268Y-65544819D01*
X145237268Y-65544819D02*
X144999173Y-65544819D01*
X144999173Y-65544819D02*
X144903935Y-65592438D01*
X144903935Y-65592438D02*
X144856316Y-65640057D01*
X144856316Y-65640057D02*
X144808697Y-65735295D01*
X144808697Y-65735295D02*
X144808697Y-65830533D01*
X144808697Y-65830533D02*
X144856316Y-65973390D01*
X144856316Y-65973390D02*
X145427744Y-66544819D01*
X145427744Y-66544819D02*
X144808697Y-66544819D01*
M02*
