%TF.GenerationSoftware,KiCad,Pcbnew,7.0.7*%
%TF.CreationDate,2024-02-14T20:27:21-06:00*%
%TF.ProjectId,Custom Loop Controller,43757374-6f6d-4204-9c6f-6f7020436f6e,rev?*%
%TF.SameCoordinates,Original*%
%TF.FileFunction,Copper,L1,Top*%
%TF.FilePolarity,Positive*%
%FSLAX46Y46*%
G04 Gerber Fmt 4.6, Leading zero omitted, Abs format (unit mm)*
G04 Created by KiCad (PCBNEW 7.0.7) date 2024-02-14 20:27:21*
%MOMM*%
%LPD*%
G01*
G04 APERTURE LIST*
G04 Aperture macros list*
%AMRoundRect*
0 Rectangle with rounded corners*
0 $1 Rounding radius*
0 $2 $3 $4 $5 $6 $7 $8 $9 X,Y pos of 4 corners*
0 Add a 4 corners polygon primitive as box body*
4,1,4,$2,$3,$4,$5,$6,$7,$8,$9,$2,$3,0*
0 Add four circle primitives for the rounded corners*
1,1,$1+$1,$2,$3*
1,1,$1+$1,$4,$5*
1,1,$1+$1,$6,$7*
1,1,$1+$1,$8,$9*
0 Add four rect primitives between the rounded corners*
20,1,$1+$1,$2,$3,$4,$5,0*
20,1,$1+$1,$4,$5,$6,$7,0*
20,1,$1+$1,$6,$7,$8,$9,0*
20,1,$1+$1,$8,$9,$2,$3,0*%
G04 Aperture macros list end*
%TA.AperFunction,ComponentPad*%
%ADD10C,1.600000*%
%TD*%
%TA.AperFunction,ComponentPad*%
%ADD11O,1.600000X1.600000*%
%TD*%
%TA.AperFunction,ComponentPad*%
%ADD12C,1.200000*%
%TD*%
%TA.AperFunction,ComponentPad*%
%ADD13R,2.600000X2.600000*%
%TD*%
%TA.AperFunction,ComponentPad*%
%ADD14C,2.600000*%
%TD*%
%TA.AperFunction,ComponentPad*%
%ADD15R,1.500000X1.050000*%
%TD*%
%TA.AperFunction,ComponentPad*%
%ADD16O,1.500000X1.050000*%
%TD*%
%TA.AperFunction,SMDPad,CuDef*%
%ADD17R,1.981200X0.533400*%
%TD*%
%TA.AperFunction,ComponentPad*%
%ADD18RoundRect,0.250000X-1.125000X-1.125000X1.125000X-1.125000X1.125000X1.125000X-1.125000X1.125000X0*%
%TD*%
%TA.AperFunction,ComponentPad*%
%ADD19R,1.830000X1.830000*%
%TD*%
%TA.AperFunction,ComponentPad*%
%ADD20C,1.830000*%
%TD*%
%TA.AperFunction,ComponentPad*%
%ADD21R,2.175000X2.175000*%
%TD*%
%TA.AperFunction,ComponentPad*%
%ADD22C,2.175000*%
%TD*%
%TA.AperFunction,ViaPad*%
%ADD23C,0.800000*%
%TD*%
%TA.AperFunction,ViaPad*%
%ADD24C,1.300000*%
%TD*%
%TA.AperFunction,Conductor*%
%ADD25C,0.250000*%
%TD*%
G04 APERTURE END LIST*
D10*
%TO.P,R-Gain2,1*%
%TO.N,Net-(Q2-E)*%
X111252000Y-127000000D03*
D11*
%TO.P,R-Gain2,2*%
%TO.N,Net-(CB-E2-Pad1)*%
X121412000Y-127000000D03*
%TD*%
D10*
%TO.P,R7,1*%
%TO.N,GND*%
X163068000Y-85852000D03*
D11*
%TO.P,R7,2*%
%TO.N,Net-(U1-+INA)*%
X163068000Y-75692000D03*
%TD*%
D10*
%TO.P,CB-Out1,1*%
%TO.N,Net-(Q1-C)*%
X119460000Y-73152000D03*
%TO.P,CB-Out1,2*%
%TO.N,Net-(C5-Pad1)*%
X124460000Y-73152000D03*
%TD*%
%TO.P,RB2,1*%
%TO.N,Net-(Q2-C)*%
X96266000Y-102362000D03*
D11*
%TO.P,RB2,2*%
%TO.N,Net-(J1-Pin_1)*%
X96266000Y-112522000D03*
%TD*%
D12*
%TO.P,C5,1*%
%TO.N,Net-(C5-Pad1)*%
X132858000Y-75438000D03*
%TO.P,C5,2*%
%TO.N,Net-(C5-Pad2)*%
X134858000Y-75438000D03*
%TD*%
D10*
%TO.P,C2,1*%
%TO.N,Net-(J1-Pin_2)*%
X83312000Y-121960000D03*
%TO.P,C2,2*%
%TO.N,GND*%
X83312000Y-126960000D03*
%TD*%
D12*
%TO.P,C6,1*%
%TO.N,Net-(C6-Pad1)*%
X128794000Y-119126000D03*
%TO.P,C6,2*%
%TO.N,Net-(C6-Pad2)*%
X130794000Y-119126000D03*
%TD*%
D10*
%TO.P,RC2,1*%
%TO.N,Net-(L1-Pad6)*%
X103378000Y-102362000D03*
D11*
%TO.P,RC2,2*%
%TO.N,Net-(Q2-C)*%
X103378000Y-112522000D03*
%TD*%
D10*
%TO.P,R12,1*%
%TO.N,Net-(J3-Pin_1)*%
X182118000Y-81788000D03*
D11*
%TO.P,R12,2*%
%TO.N,Net-(U1-+INA)*%
X171958000Y-81788000D03*
%TD*%
D10*
%TO.P,CB-BC2,1*%
%TO.N,Net-(Q2-C)*%
X84582000Y-105704000D03*
%TO.P,CB-BC2,2*%
%TO.N,Net-(J1-Pin_2)*%
X84582000Y-110704000D03*
%TD*%
%TO.P,CB-BC1,1*%
%TO.N,Net-(Q1-C)*%
X85598000Y-66588000D03*
%TO.P,CB-BC1,2*%
%TO.N,Net-(J1-Pin_4)*%
X85598000Y-71588000D03*
%TD*%
%TO.P,R8,1*%
%TO.N,Net-(U1-+INB)*%
X157226000Y-114554000D03*
D11*
%TO.P,R8,2*%
%TO.N,Net-(IC1-VOUT)*%
X157226000Y-104394000D03*
%TD*%
D10*
%TO.P,CB-E2,1*%
%TO.N,Net-(CB-E2-Pad1)*%
X130048000Y-130342000D03*
%TO.P,CB-E2,2*%
%TO.N,GND*%
X130048000Y-135342000D03*
%TD*%
%TO.P,R2,1*%
%TO.N,Net-(C6-Pad2)*%
X135890000Y-119126000D03*
D11*
%TO.P,R2,2*%
%TO.N,Net-(U1--INB)*%
X146050000Y-119126000D03*
%TD*%
D13*
%TO.P,J2,1,Pin_1*%
%TO.N,Net-(IC1-VIN)*%
X66040000Y-83298000D03*
D14*
%TO.P,J2,2,Pin_2*%
%TO.N,GND*%
X66040000Y-88298000D03*
%TD*%
D10*
%TO.P,RC1,1*%
%TO.N,Net-(L1-Pad4)*%
X105410000Y-63754000D03*
D11*
%TO.P,RC1,2*%
%TO.N,Net-(Q1-C)*%
X105410000Y-73914000D03*
%TD*%
D10*
%TO.P,R1,1*%
%TO.N,Net-(C5-Pad2)*%
X139700000Y-75438000D03*
D11*
%TO.P,R1,2*%
%TO.N,Net-(U1--INA)*%
X149860000Y-75438000D03*
%TD*%
D14*
%TO.P,J1,1,Pin_1*%
%TO.N,Net-(J1-Pin_1)*%
X65786000Y-112522000D03*
%TO.P,J1,2,Pin_2*%
%TO.N,Net-(J1-Pin_2)*%
X65786000Y-107522000D03*
%TO.P,J1,3,Pin_3*%
%TO.N,Net-(J1-Pin_3)*%
X65786000Y-102522000D03*
D13*
%TO.P,J1,4,Pin_4*%
%TO.N,Net-(J1-Pin_4)*%
X65786000Y-97522000D03*
%TD*%
D10*
%TO.P,R6,1*%
%TO.N,Net-(U1--INA)*%
X155956000Y-69342000D03*
D11*
%TO.P,R6,2*%
%TO.N,Net-(IC1-VOUT)*%
X155956000Y-59182000D03*
%TD*%
D15*
%TO.P,Q1,1,E*%
%TO.N,Net-(Q1-E)*%
X110998000Y-81026000D03*
D16*
%TO.P,Q1,2,B*%
%TO.N,Net-(J1-Pin_3)*%
X110998000Y-79756000D03*
%TO.P,Q1,3,C*%
%TO.N,Net-(Q1-C)*%
X110998000Y-78486000D03*
%TD*%
D10*
%TO.P,RB1,1*%
%TO.N,Net-(Q1-C)*%
X98552000Y-63754000D03*
D11*
%TO.P,RB1,2*%
%TO.N,Net-(J1-Pin_3)*%
X98552000Y-73914000D03*
%TD*%
D10*
%TO.P,R13,1*%
%TO.N,Net-(J4-Pin_1)*%
X171450000Y-127254000D03*
D11*
%TO.P,R13,2*%
%TO.N,Net-(U1-+INB)*%
X161290000Y-127254000D03*
%TD*%
D10*
%TO.P,RE1,1*%
%TO.N,Net-(Q1-E)*%
X108204000Y-84582000D03*
D11*
%TO.P,RE1,2*%
%TO.N,GND*%
X108204000Y-94742000D03*
%TD*%
D10*
%TO.P,CB-E1,1*%
%TO.N,Net-(CB-E1-Pad1)*%
X134620000Y-87202000D03*
%TO.P,CB-E1,2*%
%TO.N,GND*%
X134620000Y-92202000D03*
%TD*%
%TO.P,R11,1*%
%TO.N,Net-(J4-Pin_1)*%
X164592000Y-114554000D03*
D11*
%TO.P,R11,2*%
%TO.N,Net-(IC1-VOUT)*%
X164592000Y-104394000D03*
%TD*%
D10*
%TO.P,RE2,1*%
%TO.N,Net-(Q2-E)*%
X105410000Y-126492000D03*
D11*
%TO.P,RE2,2*%
%TO.N,GND*%
X105410000Y-136652000D03*
%TD*%
D15*
%TO.P,Q2,1,E*%
%TO.N,Net-(Q2-E)*%
X105516000Y-121666000D03*
D16*
%TO.P,Q2,2,B*%
%TO.N,Net-(J1-Pin_1)*%
X105516000Y-120396000D03*
%TO.P,Q2,3,C*%
%TO.N,Net-(Q2-C)*%
X105516000Y-119126000D03*
%TD*%
D17*
%TO.P,U1,1,+INA*%
%TO.N,Net-(U1-+INA)*%
X201244200Y-92837000D03*
%TO.P,U1,2,-INA*%
%TO.N,Net-(U1--INA)*%
X201244200Y-94107000D03*
%TO.P,U1,3,-INB*%
%TO.N,Net-(U1--INB)*%
X201244200Y-95377000D03*
%TO.P,U1,4,+INB*%
%TO.N,Net-(U1-+INB)*%
X201244200Y-96647000D03*
%TO.P,U1,5,GND*%
%TO.N,GND*%
X206171800Y-96647000D03*
%TO.P,U1,6,OUTB*%
%TO.N,Net-(J4-Pin_1)*%
X206171800Y-95377000D03*
%TO.P,U1,7,OUTA*%
%TO.N,Net-(J3-Pin_1)*%
X206171800Y-94107000D03*
%TO.P,U1,8,VCC*%
%TO.N,Net-(IC1-VOUT)*%
X206171800Y-92837000D03*
%TD*%
D10*
%TO.P,R10,1*%
%TO.N,Net-(U1-+INA)*%
X162560000Y-69342000D03*
D11*
%TO.P,R10,2*%
%TO.N,Net-(IC1-VOUT)*%
X162560000Y-59182000D03*
%TD*%
D18*
%TO.P,J3,1,Pin_1*%
%TO.N,Net-(J3-Pin_1)*%
X225298000Y-89662000D03*
%TD*%
D10*
%TO.P,R14,1*%
%TO.N,Net-(J3-Pin_1)*%
X169672000Y-69342000D03*
D11*
%TO.P,R14,2*%
%TO.N,Net-(IC1-VOUT)*%
X169672000Y-59182000D03*
%TD*%
D12*
%TO.P,C3,1*%
%TO.N,Net-(J1-Pin_3)*%
X99568000Y-83090000D03*
%TO.P,C3,2*%
%TO.N,GND*%
X99568000Y-85090000D03*
%TD*%
D10*
%TO.P,C1,1*%
%TO.N,Net-(J1-Pin_4)*%
X85598000Y-82336000D03*
%TO.P,C1,2*%
%TO.N,GND*%
X85598000Y-87336000D03*
%TD*%
D19*
%TO.P,IC1,1,VOUT*%
%TO.N,Net-(IC1-VOUT)*%
X159512000Y-45299000D03*
D20*
%TO.P,IC1,2,GND*%
%TO.N,GND*%
X156972000Y-45299000D03*
%TO.P,IC1,3,VIN*%
%TO.N,Net-(IC1-VIN)*%
X154432000Y-45299000D03*
%TD*%
D12*
%TO.P,C4,1*%
%TO.N,Net-(J1-Pin_1)*%
X93726000Y-122428000D03*
%TO.P,C4,2*%
%TO.N,GND*%
X93726000Y-124428000D03*
%TD*%
D10*
%TO.P,R5,1*%
%TO.N,GND*%
X149606000Y-133604000D03*
D11*
%TO.P,R5,2*%
%TO.N,Net-(U1--INB)*%
X149606000Y-123444000D03*
%TD*%
D10*
%TO.P,R4,1*%
%TO.N,Net-(U1--INB)*%
X149860000Y-114808000D03*
D11*
%TO.P,R4,2*%
%TO.N,Net-(IC1-VOUT)*%
X149860000Y-104648000D03*
%TD*%
D10*
%TO.P,R3,1*%
%TO.N,GND*%
X155956000Y-85852000D03*
D11*
%TO.P,R3,2*%
%TO.N,Net-(U1--INA)*%
X155956000Y-75692000D03*
%TD*%
D10*
%TO.P,R-Gain1,1*%
%TO.N,Net-(Q1-E)*%
X116332000Y-84836000D03*
D11*
%TO.P,R-Gain1,2*%
%TO.N,Net-(CB-E1-Pad1)*%
X126492000Y-84836000D03*
%TD*%
D18*
%TO.P,J4,1,Pin_1*%
%TO.N,Net-(J4-Pin_1)*%
X225298000Y-99060000D03*
%TD*%
D21*
%TO.P,L1,1,1*%
%TO.N,Net-(IC1-VIN)*%
X134366000Y-45720000D03*
D22*
%TO.P,L1,3,3*%
X124366000Y-45720000D03*
%TO.P,L1,4,4*%
%TO.N,Net-(L1-Pad4)*%
X124366000Y-55720000D03*
%TO.P,L1,6,6*%
%TO.N,Net-(L1-Pad6)*%
X134366000Y-55720000D03*
%TD*%
D10*
%TO.P,CB-Out2,1*%
%TO.N,Net-(Q2-C)*%
X114888000Y-113792000D03*
%TO.P,CB-Out2,2*%
%TO.N,Net-(C6-Pad1)*%
X119888000Y-113792000D03*
%TD*%
%TO.P,R9,1*%
%TO.N,GND*%
X156210000Y-133604000D03*
D11*
%TO.P,R9,2*%
%TO.N,Net-(U1-+INB)*%
X156210000Y-123444000D03*
%TD*%
D23*
%TO.N,GND*%
X203708000Y-96266000D03*
X76200000Y-101092000D03*
X76200000Y-88138000D03*
X152400000Y-103378000D03*
X152487000Y-82383000D03*
X74168000Y-109728000D03*
X74168000Y-117602000D03*
D24*
X154686000Y-53086000D03*
D23*
X181356000Y-86614000D03*
D24*
%TO.N,Net-(C6-Pad1)*%
X128524000Y-102870000D03*
D23*
%TO.N,Net-(IC1-VOUT)*%
X201168000Y-83058000D03*
X159512000Y-57912000D03*
X199898000Y-81026000D03*
X159512000Y-88138000D03*
D24*
X164084000Y-51816000D03*
%TO.N,Net-(C5-Pad1)*%
X130302000Y-63754000D03*
%TD*%
D25*
%TO.N,GND*%
X99568000Y-85090000D02*
X108204000Y-93726000D01*
X155956000Y-85852000D02*
X163068000Y-85852000D01*
X99568000Y-85090000D02*
X97322000Y-87336000D01*
X76200000Y-101092000D02*
X76200000Y-103378000D01*
X76120000Y-88058000D02*
X76200000Y-88138000D01*
X105410000Y-136112000D02*
X105410000Y-136652000D01*
X163068000Y-85852000D02*
X173228000Y-85852000D01*
X85844000Y-124428000D02*
X83312000Y-126960000D01*
X149606000Y-133604000D02*
X156210000Y-133604000D01*
X152487000Y-103291000D02*
X152400000Y-103378000D01*
X152487000Y-82383000D02*
X152487000Y-103291000D01*
X110744000Y-92202000D02*
X108204000Y-94742000D01*
X97322000Y-87336000D02*
X85598000Y-87336000D01*
X74168000Y-117816000D02*
X83312000Y-126960000D01*
X74168000Y-117602000D02*
X74168000Y-117816000D01*
X203708000Y-96266000D02*
X204089000Y-96647000D01*
X93726000Y-124428000D02*
X85844000Y-124428000D01*
X108204000Y-93726000D02*
X108204000Y-94742000D01*
X74168000Y-105410000D02*
X74168000Y-109728000D01*
X93726000Y-124428000D02*
X105410000Y-136112000D01*
X106720000Y-135342000D02*
X105410000Y-136652000D01*
X130048000Y-135342000D02*
X106720000Y-135342000D01*
X173990000Y-86614000D02*
X181356000Y-86614000D01*
X204089000Y-96647000D02*
X206171800Y-96647000D01*
X173228000Y-85852000D02*
X173990000Y-86614000D01*
X76200000Y-103378000D02*
X74168000Y-105410000D01*
X134620000Y-92202000D02*
X110744000Y-92202000D01*
%TO.N,Net-(J1-Pin_4)*%
X83780000Y-82336000D02*
X68594000Y-97522000D01*
X85598000Y-71588000D02*
X85598000Y-82336000D01*
X85598000Y-82336000D02*
X83780000Y-82336000D01*
X68594000Y-97522000D02*
X65786000Y-97522000D01*
%TO.N,Net-(J1-Pin_2)*%
X74118695Y-110704000D02*
X84582000Y-110704000D01*
X84582000Y-110704000D02*
X84582000Y-120690000D01*
X70936695Y-107522000D02*
X65786000Y-107522000D01*
X74118695Y-110704000D02*
X70936695Y-107522000D01*
X84582000Y-120690000D02*
X83312000Y-121960000D01*
%TO.N,Net-(C6-Pad1)*%
X119888000Y-113792000D02*
X121666000Y-113792000D01*
X119888000Y-113792000D02*
X123460000Y-113792000D01*
X128524000Y-106934000D02*
X128524000Y-102870000D01*
X121666000Y-113792000D02*
X128524000Y-106934000D01*
X123460000Y-113792000D02*
X128794000Y-119126000D01*
%TO.N,Net-(C6-Pad2)*%
X130794000Y-119126000D02*
X135890000Y-119126000D01*
%TO.N,Net-(Q2-C)*%
X109554000Y-119126000D02*
X114888000Y-113792000D01*
X103378000Y-112522000D02*
X103378000Y-116988000D01*
X86614000Y-102362000D02*
X96266000Y-102362000D01*
X84582000Y-104394000D02*
X86614000Y-102362000D01*
X84582000Y-105704000D02*
X84582000Y-104394000D01*
X103378000Y-109474000D02*
X96266000Y-102362000D01*
X103378000Y-112522000D02*
X103378000Y-109474000D01*
X103378000Y-116988000D02*
X105516000Y-119126000D01*
X105516000Y-119126000D02*
X109554000Y-119126000D01*
%TO.N,Net-(Q1-C)*%
X105410000Y-73914000D02*
X109982000Y-78486000D01*
X105410000Y-67056000D02*
X105410000Y-73914000D01*
X102108000Y-63754000D02*
X105410000Y-67056000D01*
X88432000Y-63754000D02*
X85598000Y-66588000D01*
X109982000Y-78486000D02*
X110998000Y-78486000D01*
X116332000Y-73152000D02*
X110998000Y-78486000D01*
X119460000Y-73152000D02*
X116332000Y-73152000D01*
X98552000Y-63754000D02*
X88432000Y-63754000D01*
X98552000Y-63754000D02*
X102108000Y-63754000D01*
%TO.N,Net-(CB-E1-Pad1)*%
X132254000Y-84836000D02*
X134620000Y-87202000D01*
X126492000Y-84836000D02*
X132254000Y-84836000D01*
%TO.N,Net-(CB-E2-Pad1)*%
X121412000Y-127000000D02*
X126706000Y-127000000D01*
X126706000Y-127000000D02*
X130048000Y-130342000D01*
%TO.N,Net-(IC1-VOUT)*%
X178054000Y-59182000D02*
X199898000Y-81026000D01*
X201168000Y-83058000D02*
X206171800Y-88061800D01*
X159512000Y-56134000D02*
X159512000Y-57912000D01*
X157226000Y-90424000D02*
X157226000Y-104394000D01*
X161036000Y-51816000D02*
X164084000Y-51816000D01*
X159512000Y-45299000D02*
X159512000Y-50292000D01*
X156972000Y-104648000D02*
X157226000Y-104394000D01*
X159512000Y-88138000D02*
X157226000Y-90424000D01*
X155956000Y-59182000D02*
X162560000Y-59182000D01*
X159512000Y-56134000D02*
X162560000Y-59182000D01*
X162560000Y-59182000D02*
X169672000Y-59182000D01*
X169672000Y-59182000D02*
X178054000Y-59182000D01*
X149860000Y-104648000D02*
X156972000Y-104648000D01*
X206171800Y-88061800D02*
X206171800Y-92837000D01*
X159512000Y-50292000D02*
X161036000Y-51816000D01*
X159512000Y-50292000D02*
X159512000Y-56134000D01*
X157226000Y-104394000D02*
X164592000Y-104394000D01*
%TO.N,Net-(IC1-VIN)*%
X116332000Y-45720000D02*
X124366000Y-45720000D01*
X66040000Y-83298000D02*
X66040000Y-52578000D01*
X124366000Y-45720000D02*
X134366000Y-45720000D01*
X113284000Y-48768000D02*
X116332000Y-45720000D01*
X69850000Y-48768000D02*
X113284000Y-48768000D01*
X124366000Y-45720000D02*
X124366000Y-42512000D01*
X124366000Y-42512000D02*
X124714000Y-42164000D01*
X66040000Y-52578000D02*
X69850000Y-48768000D01*
X124714000Y-42164000D02*
X151297000Y-42164000D01*
X151297000Y-42164000D02*
X154432000Y-45299000D01*
%TO.N,Net-(L1-Pad4)*%
X112870000Y-55720000D02*
X108458000Y-60132000D01*
X108458000Y-60132000D02*
X108458000Y-60706000D01*
X124366000Y-55720000D02*
X112870000Y-55720000D01*
X108458000Y-60706000D02*
X105410000Y-63754000D01*
%TO.N,Net-(Q1-E)*%
X116078000Y-84582000D02*
X116332000Y-84836000D01*
X108204000Y-84582000D02*
X116078000Y-84582000D01*
X110998000Y-81788000D02*
X108204000Y-84582000D01*
X110998000Y-81026000D02*
X110998000Y-81788000D01*
%TO.N,Net-(Q2-E)*%
X105410000Y-126492000D02*
X110744000Y-126492000D01*
X105516000Y-121666000D02*
X105516000Y-126386000D01*
X110744000Y-126492000D02*
X111252000Y-127000000D01*
X105516000Y-126386000D02*
X105410000Y-126492000D01*
%TO.N,Net-(J3-Pin_1)*%
X210820000Y-92710000D02*
X209423000Y-94107000D01*
X210820000Y-92710000D02*
X222250000Y-92710000D01*
X169672000Y-69342000D02*
X182118000Y-81788000D01*
X210820000Y-82042000D02*
X210820000Y-92710000D01*
X210566000Y-81788000D02*
X210820000Y-82042000D01*
X182118000Y-81788000D02*
X210566000Y-81788000D01*
X222250000Y-92710000D02*
X225298000Y-89662000D01*
X209423000Y-94107000D02*
X206171800Y-94107000D01*
%TO.N,Net-(U1-+INA)*%
X171958000Y-81788000D02*
X179578000Y-81788000D01*
X179578000Y-81788000D02*
X190627000Y-92837000D01*
X162560000Y-75184000D02*
X163068000Y-75692000D01*
X190627000Y-92837000D02*
X201244200Y-92837000D01*
X165862000Y-75692000D02*
X171958000Y-81788000D01*
X162560000Y-69342000D02*
X162560000Y-75184000D01*
X163068000Y-75692000D02*
X165862000Y-75692000D01*
%TO.N,Net-(U1--INA)*%
X181610000Y-85344000D02*
X190373000Y-94107000D01*
X155956000Y-75692000D02*
X155956000Y-69342000D01*
X190373000Y-94107000D02*
X201244200Y-94107000D01*
X173482000Y-84328000D02*
X174498000Y-85344000D01*
X149860000Y-75438000D02*
X155702000Y-75438000D01*
X155702000Y-75438000D02*
X155956000Y-75692000D01*
X164084000Y-78232000D02*
X161544000Y-78232000D01*
X174498000Y-85344000D02*
X181610000Y-85344000D01*
X170180000Y-84328000D02*
X164084000Y-78232000D01*
X155956000Y-75692000D02*
X159004000Y-75692000D01*
X161544000Y-78232000D02*
X159004000Y-75692000D01*
X170113009Y-84328000D02*
X170180000Y-84328000D01*
X170180000Y-84328000D02*
X173482000Y-84328000D01*
%TO.N,Net-(J4-Pin_1)*%
X203454000Y-94996000D02*
X203835000Y-95377000D01*
X164592000Y-114554000D02*
X164592000Y-120396000D01*
X221615000Y-95377000D02*
X225298000Y-99060000D01*
X202946000Y-96852500D02*
X202946000Y-95504000D01*
X202946000Y-95504000D02*
X203454000Y-94996000D01*
X206171800Y-95377000D02*
X221615000Y-95377000D01*
X164592000Y-120396000D02*
X171450000Y-127254000D01*
X201246500Y-98552000D02*
X202946000Y-96852500D01*
X164592000Y-114554000D02*
X180594000Y-98552000D01*
X203835000Y-95377000D02*
X206171800Y-95377000D01*
X180594000Y-98552000D02*
X201246500Y-98552000D01*
%TO.N,Net-(U1-+INB)*%
X157480000Y-123444000D02*
X161290000Y-127254000D01*
X157226000Y-114554000D02*
X157226000Y-122428000D01*
X157226000Y-122428000D02*
X156210000Y-123444000D01*
X156210000Y-123444000D02*
X157480000Y-123444000D01*
X164084000Y-107696000D02*
X169164000Y-107696000D01*
X169164000Y-107696000D02*
X180213000Y-96647000D01*
X157226000Y-114554000D02*
X164084000Y-107696000D01*
X180213000Y-96647000D02*
X201244200Y-96647000D01*
%TO.N,Net-(U1--INB)*%
X180213000Y-95377000D02*
X201244200Y-95377000D01*
X146050000Y-119126000D02*
X149606000Y-122682000D01*
X168910000Y-106680000D02*
X180213000Y-95377000D01*
X157988000Y-106680000D02*
X168910000Y-106680000D01*
X146050000Y-119126000D02*
X149860000Y-115316000D01*
X149606000Y-122682000D02*
X149606000Y-123444000D01*
X149860000Y-115316000D02*
X149860000Y-114808000D01*
X149860000Y-114808000D02*
X157988000Y-106680000D01*
%TO.N,Net-(J1-Pin_3)*%
X102902000Y-79756000D02*
X110998000Y-79756000D01*
X99568000Y-83090000D02*
X102902000Y-79756000D01*
X98552000Y-82074000D02*
X99568000Y-83090000D01*
X98552000Y-73914000D02*
X98552000Y-82074000D01*
%TO.N,Net-(J1-Pin_1)*%
X96266000Y-119888000D02*
X96774000Y-120396000D01*
X96774000Y-120396000D02*
X105516000Y-120396000D01*
X96266000Y-112522000D02*
X96266000Y-119888000D01*
X96266000Y-119888000D02*
X93726000Y-122428000D01*
%TO.N,Net-(C5-Pad1)*%
X132604000Y-75184000D02*
X132858000Y-75438000D01*
X130302000Y-63754000D02*
X130302000Y-67310000D01*
X132858000Y-75438000D02*
X126746000Y-75438000D01*
X126746000Y-75438000D02*
X124460000Y-73152000D01*
X130302000Y-67310000D02*
X124460000Y-73152000D01*
%TO.N,Net-(C5-Pad2)*%
X134858000Y-75438000D02*
X139700000Y-75438000D01*
%TD*%
M02*
