M48
; DRILL file {KiCad 7.0.7} date Wed Feb 14 20:27:30 2024
; FORMAT={-:-/ absolute / metric / decimal}
; #@! TF.CreationDate,2024-02-14T20:27:30-06:00
; #@! TF.GenerationSoftware,Kicad,Pcbnew,7.0.7
; #@! TF.FileFunction,MixedPlating,1,2
FMAT,2
METRIC
; #@! TA.AperFunction,Plated,PTH,ViaDrill
T1C0.400
; #@! TA.AperFunction,Plated,PTH,ComponentDrill
T2C0.600
; #@! TA.AperFunction,Plated,PTH,ComponentDrill
T3C0.750
; #@! TA.AperFunction,Plated,PTH,ComponentDrill
T4C0.800
; #@! TA.AperFunction,Plated,PTH,ViaDrill
T5C1.000
; #@! TA.AperFunction,Plated,PTH,ComponentDrill
T6C1.220
; #@! TA.AperFunction,Plated,PTH,ComponentDrill
T7C1.300
; #@! TA.AperFunction,Plated,PTH,ComponentDrill
T8C1.450
; #@! TA.AperFunction,Plated,PTH,ComponentDrill
T9C1.750
; #@! TA.AperFunction,NonPlated,NPTH,ComponentDrill
T10C2.200
%
G90
G05
T1
X74.168Y-109.728
X74.168Y-117.602
X76.2Y-88.138
X76.2Y-101.092
X152.4Y-103.378
X152.487Y-82.383
X159.512Y-57.912
X159.512Y-88.138
X181.356Y-86.614
X199.898Y-81.026
X201.168Y-83.058
X203.708Y-96.266
T2
X93.726Y-122.428
X93.726Y-124.428
X99.568Y-83.09
X99.568Y-85.09
X128.794Y-119.126
X130.794Y-119.126
X132.858Y-75.438
X134.858Y-75.438
T3
X105.516Y-119.126
X105.516Y-120.396
X105.516Y-121.666
X110.998Y-78.486
X110.998Y-79.756
X110.998Y-81.026
T4
X83.312Y-121.96
X83.312Y-126.96
X84.582Y-105.704
X84.582Y-110.704
X85.598Y-66.588
X85.598Y-71.588
X85.598Y-82.336
X85.598Y-87.336
X96.266Y-102.362
X96.266Y-112.522
X98.552Y-63.754
X98.552Y-73.914
X103.378Y-102.362
X103.378Y-112.522
X105.41Y-63.754
X105.41Y-73.914
X105.41Y-126.492
X105.41Y-136.652
X108.204Y-84.582
X108.204Y-94.742
X111.252Y-127.0
X114.888Y-113.792
X116.332Y-84.836
X119.46Y-73.152
X119.888Y-113.792
X121.412Y-127.0
X124.46Y-73.152
X126.492Y-84.836
X130.048Y-130.342
X130.048Y-135.342
X134.62Y-87.202
X134.62Y-92.202
X135.89Y-119.126
X139.7Y-75.438
X146.05Y-119.126
X149.606Y-123.444
X149.606Y-133.604
X149.86Y-75.438
X149.86Y-104.648
X149.86Y-114.808
X155.956Y-59.182
X155.956Y-69.342
X155.956Y-75.692
X155.956Y-85.852
X156.21Y-123.444
X156.21Y-133.604
X157.226Y-104.394
X157.226Y-114.554
X161.29Y-127.254
X162.56Y-59.182
X162.56Y-69.342
X163.068Y-75.692
X163.068Y-85.852
X164.592Y-104.394
X164.592Y-114.554
X169.672Y-59.182
X169.672Y-69.342
X171.45Y-127.254
X171.958Y-81.788
X182.118Y-81.788
T5
X128.524Y-102.87
X130.302Y-63.754
X154.686Y-53.086
X164.084Y-51.816
T6
X154.432Y-45.299
X156.972Y-45.299
X159.512Y-45.299
T7
X65.786Y-97.522
X65.786Y-102.522
X65.786Y-107.522
X65.786Y-112.522
X66.04Y-83.298
X66.04Y-88.298
T8
X124.366Y-45.72
X124.366Y-55.72
X134.366Y-45.72
X134.366Y-55.72
T9
X225.298Y-89.662
X225.298Y-99.06
T10
X59.69Y-43.18
X59.69Y-139.7
X228.6Y-43.18
X228.6Y-139.7
T0
M30
